<svg xmlns="http://www.w3.org/2000/svg" viewBox="0 0 640 400" font-family="sans-serif"><rect width="640" height="400" fill="#fff"/><path d="M0 330 C160 290 300 360 640 310 L640 400 L0 400Z" fill="#cfe6f2"/><text x="300" y="380" font-size="14" fill="#456">RIVER</text><rect x="20" y="20" width="600" height="260" fill="#eef4e8" stroke="#789" stroke-width="2"/><rect x="40" y="40" width="110" height="70" fill="#fff" stroke="#123" stroke-width="2"/><text x="85" y="82" font-size="26" font-weight="700">A</text><rect x="250" y="40" width="110" height="70" fill="#fff" stroke="#123" stroke-width="2"/><text x="295" y="82" font-size="26" font-weight="700">B</text><rect x="470" y="40" width="110" height="70" fill="#fff" stroke="#123" stroke-width="2"/><text x="515" y="82" font-size="26" font-weight="700">C</text><rect x="40" y="170" width="110" height="70" fill="#fff" stroke="#123" stroke-width="2"/><text x="85" y="212" font-size="26" font-weight="700">D</text><rect x="250" y="170" width="110" height="70" fill="#fff" stroke="#123" stroke-width="2"/><text x="295" y="212" font-size="26" font-weight="700">E</text><rect x="470" y="170" width="110" height="70" fill="#fff" stroke="#123" stroke-width="2"/><text x="515" y="212" font-size="26" font-weight="700">F</text><text x="280" y="150" font-size="13" fill="#456">LAWN</text><text x="500" y="14" font-size="12" fill="#123">MAIN GATE &#8594;</text></svg>
